<svg width="448" height="170" viewBox="0 0 448 170" fill="none" xmlns="http://www.w3.org/2000/svg">
<g filter="url(#filter0_d_8159_381)">
<g clip-path="url(#clip0_8159_381)">
<rect x="12" y="9.58984" width="424" height="130" rx="40" fill="#0046E2"/>
<mask id="mask0_8159_381" style="mask-type:alpha" maskUnits="userSpaceOnUse" x="12" y="9" width="424" height="126">
<rect x="12" y="9.58984" width="424" height="125" rx="40" fill="#4318FF"/>
</mask>
<g mask="url(#mask0_8159_381)">
<path opacity="0.1" d="M242 173.59L363.689 -38.4102H430.384L436 173.59H242Z" fill="url(#paint0_linear_8159_381)"/>
</g>
<g clip-path="url(#clip1_8159_381)">
<path d="M389 43.5898C387.9 43.5898 387 44.4898 387 45.5898C387 46.6898 387.9 47.5898 389 47.5898C390.1 47.5898 391 46.6898 391 45.5898C391 44.4898 390.1 43.5898 389 43.5898ZM401 43.5898C399.9 43.5898 399 44.4898 399 45.5898C399 46.6898 399.9 47.5898 401 47.5898C402.1 47.5898 403 46.6898 403 45.5898C403 44.4898 402.1 43.5898 401 43.5898ZM395 43.5898C393.9 43.5898 393 44.4898 393 45.5898C393 46.6898 393.9 47.5898 395 47.5898C396.1 47.5898 397 46.6898 397 45.5898C397 44.4898 396.1 43.5898 395 43.5898Z" fill="white"/>
</g>
<path d="M52.2074 43.7006H50.8778C50.8267 43.4165 50.7315 43.1665 50.5923 42.9506C50.4531 42.7347 50.2827 42.5515 50.081 42.4009C49.8793 42.2504 49.6534 42.1367 49.4034 42.06C49.1563 41.9833 48.8935 41.945 48.6151 41.945C48.1122 41.945 47.6619 42.0714 47.2642 42.3242C46.8693 42.5771 46.5568 42.9478 46.3267 43.4364C46.0994 43.9251 45.9858 44.5217 45.9858 45.2262C45.9858 45.9364 46.0994 46.5359 46.3267 47.0245C46.5568 47.5131 46.8707 47.8825 47.2685 48.1325C47.6662 48.3825 48.1136 48.5075 48.6108 48.5075C48.8864 48.5075 49.1477 48.4705 49.3949 48.3967C49.6449 48.32 49.8707 48.2077 50.0724 48.06C50.2741 47.9123 50.4446 47.7319 50.5838 47.5188C50.7259 47.3029 50.8239 47.0558 50.8778 46.7773L52.2074 46.7816C52.1364 47.2106 51.9986 47.6055 51.794 47.9663C51.5923 48.3242 51.3324 48.6339 51.0142 48.8952C50.6989 49.1538 50.3381 49.354 49.9318 49.4961C49.5256 49.6381 49.0824 49.7092 48.6023 49.7092C47.8466 49.7092 47.1733 49.5302 46.5824 49.1722C45.9915 48.8114 45.5256 48.2958 45.1847 47.6254C44.8466 46.9549 44.6776 46.1552 44.6776 45.2262C44.6776 44.2944 44.848 43.4947 45.1889 42.8271C45.5298 42.1566 45.9957 41.6424 46.5866 41.2844C47.1776 40.9237 47.8494 40.7433 48.6023 40.7433C49.0653 40.7433 49.4972 40.81 49.8977 40.9435C50.3011 41.0742 50.6634 41.2674 50.9844 41.5231C51.3054 41.7759 51.571 42.0856 51.7812 42.4521C51.9915 42.8157 52.1335 43.2319 52.2074 43.7006ZM53.4408 49.5898V43.0444H58.7802V49.5898H57.5317V44.1438H54.6808V49.5898H53.4408ZM61.4923 47.8043L64.3772 43.0444H65.7494V49.5898H64.5008V44.8256L61.6287 49.5898H60.2437V43.0444H61.4923V47.8043ZM69.9796 49.7219C69.3461 49.7219 68.8006 49.5785 68.3432 49.2915C67.8887 49.0018 67.5392 48.6026 67.2949 48.0941C67.0506 47.5856 66.9284 47.0032 66.9284 46.3469C66.9284 45.6822 67.0534 45.0955 67.3034 44.587C67.5534 44.0756 67.9057 43.6765 68.3603 43.3896C68.8148 43.1026 69.3503 42.9592 69.9668 42.9592C70.4639 42.9592 70.9071 43.0515 71.2963 43.2362C71.6855 43.418 71.9995 43.6737 72.2381 44.0032C72.4796 44.3327 72.623 44.7177 72.6685 45.158H71.4284C71.3603 44.8512 71.204 44.587 70.9597 44.3654C70.7182 44.1438 70.3943 44.033 69.9881 44.033C69.633 44.033 69.3219 44.1268 69.0549 44.3143C68.7907 44.4989 68.5847 44.7631 68.437 45.1069C68.2892 45.4478 68.2154 45.8512 68.2154 46.3171C68.2154 46.7944 68.2878 47.2063 68.4327 47.5529C68.5776 47.8995 68.7821 48.168 69.0463 48.3583C69.3134 48.5487 69.6273 48.6438 69.9881 48.6438C70.2296 48.6438 70.4483 48.5998 70.6443 48.5117C70.8432 48.4208 71.0094 48.2915 71.1429 48.1239C71.2793 47.9563 71.3745 47.7546 71.4284 47.5188H72.6685C72.623 47.9421 72.4853 48.32 72.2551 48.6523C72.025 48.9847 71.7168 49.2461 71.3304 49.4364C70.9469 49.6268 70.4966 49.7219 69.9796 49.7219ZM76.5482 49.7219C75.9345 49.7219 75.399 49.5813 74.9416 49.3001C74.4842 49.0188 74.1291 48.6254 73.8763 48.1197C73.6235 47.614 73.497 47.0231 73.497 46.3469C73.497 45.668 73.6235 45.0742 73.8763 44.5657C74.1291 44.0572 74.4842 43.6623 74.9416 43.381C75.399 43.0998 75.9345 42.9592 76.5482 42.9592C77.1618 42.9592 77.6973 43.0998 78.1547 43.381C78.6121 43.6623 78.9672 44.0572 79.22 44.5657C79.4729 45.0742 79.5993 45.668 79.5993 46.3469C79.5993 47.0231 79.4729 47.614 79.22 48.1197C78.9672 48.6254 78.6121 49.0188 78.1547 49.3001C77.6973 49.5813 77.1618 49.7219 76.5482 49.7219ZM76.5524 48.6523C76.9502 48.6523 77.2797 48.5472 77.5411 48.337C77.8024 48.1268 77.9956 47.8469 78.1206 47.4975C78.2485 47.1481 78.3124 46.7631 78.3124 46.3427C78.3124 45.9251 78.2485 45.5415 78.1206 45.1921C77.9956 44.8398 77.8024 44.5572 77.5411 44.3441C77.2797 44.131 76.9502 44.0245 76.5524 44.0245C76.1519 44.0245 75.8195 44.131 75.5553 44.3441C75.2939 44.5572 75.0993 44.8398 74.9715 45.1921C74.8465 45.5415 74.784 45.9251 74.784 46.3427C74.784 46.7631 74.8465 47.1481 74.9715 47.4975C75.0993 47.8469 75.2939 48.1268 75.5553 48.337C75.8195 48.5472 76.1519 48.6523 76.5524 48.6523ZM80.7815 49.5898V43.0444H82.0557V45.7887H82.6693L84.8298 43.0444H86.4065L83.871 46.2276L86.4364 49.5898H84.8554L82.8824 46.9734H82.0557V49.5898H80.7815Z" fill="#E9EDF7"/>
<path d="M45.2756 61.408H50.7983V77.8739H51.0156L62.3295 61.408H67.1747V87.5898H61.6392V71.1111H61.4474L50.0696 87.5898H45.2756V61.408ZM84.5921 75.5984V79.881H74.3393V75.5984H84.5921ZM76.1291 67.9535V87.5898H70.926V67.9535H76.1291ZM88.0055 67.9535V87.5898H82.8407V67.9535H88.0055ZM100.383 87.9734C98.3714 87.9734 96.6413 87.5472 95.1925 86.695C93.7521 85.8342 92.6442 84.641 91.8686 83.1154C91.1015 81.5898 90.718 79.8342 90.718 77.8484C90.718 75.837 91.1058 74.0728 91.8814 72.5558C92.6655 71.0302 93.7777 69.8413 95.218 68.989C96.6584 68.1282 98.3714 67.6978 100.357 67.6978C102.07 67.6978 103.57 68.0089 104.857 68.631C106.144 69.2532 107.163 70.1268 107.913 71.2518C108.663 72.3768 109.076 73.6978 109.153 75.2148H104.013C103.869 74.2347 103.485 73.4464 102.863 72.8498C102.249 72.2447 101.444 71.9421 100.447 71.9421C99.603 71.9421 98.8658 72.1722 98.2351 72.6325C97.6129 73.0842 97.1271 73.7447 96.7777 74.614C96.4283 75.4833 96.2535 76.5359 96.2535 77.7717C96.2535 79.0245 96.424 80.0898 96.7649 80.9677C97.1143 81.8455 97.6044 82.5146 98.2351 82.9748C98.8658 83.435 99.603 83.6651 100.447 83.6651C101.069 83.6651 101.627 83.5373 102.121 83.2816C102.624 83.0259 103.038 82.6552 103.361 82.1694C103.694 81.6751 103.911 81.0827 104.013 80.3924H109.153C109.067 81.8924 108.658 83.2134 107.925 84.3555C107.201 85.489 106.2 86.3754 104.921 87.0146C103.643 87.6538 102.13 87.9734 100.383 87.9734ZM110.58 72.2361V67.9535H128.376V72.2361H122.048V87.5898H116.857V72.2361H110.58ZM130.957 94.9535V67.9535H136.327V71.2518H136.57C136.808 70.7234 137.153 70.1864 137.605 69.641C138.065 69.087 138.662 68.6268 139.395 68.2603C140.136 67.8853 141.057 67.6978 142.156 67.6978C143.588 67.6978 144.909 68.0728 146.119 68.8228C147.33 69.5643 148.297 70.685 149.021 72.185C149.746 73.6765 150.108 75.5472 150.108 77.7972C150.108 79.9876 149.754 81.837 149.047 83.3455C148.348 84.8455 147.393 85.9833 146.183 86.7589C144.982 87.5259 143.635 87.9094 142.143 87.9094C141.087 87.9094 140.187 87.7347 139.446 87.3853C138.713 87.0359 138.112 86.5969 137.643 86.0685C137.175 85.5316 136.817 84.9904 136.57 84.445H136.403V94.9535H130.957ZM136.288 77.7717C136.288 78.9393 136.45 79.9577 136.774 80.8271C137.098 81.6964 137.567 82.3739 138.18 82.8597C138.794 83.337 139.54 83.5756 140.418 83.5756C141.304 83.5756 142.054 83.3327 142.668 82.8469C143.281 82.3526 143.746 81.6708 144.061 80.8015C144.385 79.9237 144.547 78.9137 144.547 77.7717C144.547 76.6381 144.389 75.641 144.074 74.7802C143.758 73.9194 143.294 73.2461 142.68 72.7603C142.067 72.2745 141.312 72.0316 140.418 72.0316C139.531 72.0316 138.781 72.266 138.168 72.7347C137.562 73.2035 137.098 73.8683 136.774 74.729C136.45 75.5898 136.288 76.604 136.288 77.7717ZM155.748 94.9535C155.058 94.9535 154.41 94.8981 153.805 94.7873C153.208 94.685 152.714 94.5529 152.322 94.391L153.549 90.3256C154.188 90.5217 154.764 90.6282 155.275 90.6452C155.795 90.6623 156.242 90.543 156.617 90.2873C157.001 90.0316 157.312 89.5969 157.551 88.9833L157.87 88.1523L150.826 67.9535H156.553L160.619 82.3739H160.823L164.927 67.9535H170.693L163.061 89.712C162.694 90.7688 162.195 91.6893 161.565 92.4734C160.943 93.266 160.154 93.8754 159.2 94.3015C158.245 94.7362 157.095 94.9535 155.748 94.9535ZM184.368 81.5685L189.686 67.9535H193.828L186.17 87.5898H182.552L175.073 67.9535H179.203L184.368 81.5685ZM177.963 67.9535V87.5898H172.76V67.9535H177.963ZM191.041 87.5898V67.9535H196.18V87.5898H191.041ZM208.621 87.9734C206.601 87.9734 204.863 87.5643 203.405 86.7461C201.956 85.9194 200.84 84.7518 200.056 83.2433C199.272 81.7262 198.88 79.9322 198.88 77.8611C198.88 75.8413 199.272 74.0685 200.056 72.543C200.84 71.0174 201.944 69.8285 203.367 68.9762C204.799 68.1239 206.478 67.6978 208.404 67.6978C209.699 67.6978 210.905 67.9066 212.022 68.3242C213.147 68.7333 214.127 69.3512 214.962 70.1779C215.806 71.0046 216.462 72.0444 216.931 73.2972C217.4 74.5415 217.634 75.9989 217.634 77.6694V79.1651H201.053V75.7901H212.508C212.508 75.006 212.337 74.3114 211.996 73.7063C211.655 73.1012 211.182 72.6282 210.577 72.2873C209.981 71.9379 209.286 71.7631 208.493 71.7631C207.667 71.7631 206.934 71.9549 206.295 72.3384C205.664 72.7134 205.17 73.2205 204.812 73.8597C204.454 74.4904 204.27 75.1935 204.262 75.9691V79.1779C204.262 80.1495 204.441 80.989 204.799 81.6964C205.165 82.4038 205.681 82.9492 206.346 83.3327C207.01 83.7163 207.799 83.908 208.711 83.908C209.316 83.908 209.87 83.8228 210.373 83.6523C210.875 83.4819 211.306 83.2262 211.664 82.8853C212.022 82.5444 212.295 82.1268 212.482 81.6325L217.519 81.9648C217.263 83.1751 216.739 84.2319 215.947 85.1353C215.162 86.0302 214.148 86.729 212.904 87.2319C211.668 87.7262 210.241 87.9734 208.621 87.9734ZM234.134 75.5984V79.881H223.881V75.5984H234.134ZM225.671 67.9535V87.5898H220.468V67.9535H225.671ZM237.548 67.9535V87.5898H232.383V67.9535H237.548ZM239.081 72.2361V67.9535H256.876V72.2361H250.548V87.5898H245.358V72.2361H239.081ZM267.627 87.9734C265.641 87.9734 263.924 87.5515 262.475 86.7077C261.034 85.8555 259.922 84.6708 259.138 83.1538C258.354 81.6282 257.962 79.8597 257.962 77.8484C257.962 75.82 258.354 74.0472 259.138 72.5302C259.922 71.0046 261.034 69.82 262.475 68.9762C263.924 68.1239 265.641 67.6978 267.627 67.6978C269.613 67.6978 271.326 68.1239 272.766 68.9762C274.215 69.82 275.331 71.0046 276.115 72.5302C276.899 74.0472 277.291 75.82 277.291 77.8484C277.291 79.8597 276.899 81.6282 276.115 83.1538C275.331 84.6708 274.215 85.8555 272.766 86.7077C271.326 87.5515 269.613 87.9734 267.627 87.9734ZM267.652 83.7546C268.556 83.7546 269.31 83.4989 269.915 82.9876C270.52 82.4677 270.976 81.7603 271.283 80.8654C271.598 79.9705 271.756 78.9521 271.756 77.81C271.756 76.668 271.598 75.6495 271.283 74.7546C270.976 73.8597 270.52 73.1523 269.915 72.6325C269.31 72.1126 268.556 71.8526 267.652 71.8526C266.74 71.8526 265.973 72.1126 265.351 72.6325C264.738 73.1523 264.273 73.8597 263.958 74.7546C263.651 75.6495 263.497 76.668 263.497 77.81C263.497 78.9521 263.651 79.9705 263.958 80.8654C264.273 81.7603 264.738 82.4677 265.351 82.9876C265.973 83.4989 266.74 83.7546 267.652 83.7546ZM280.113 87.5898V67.9535H288.486C290.907 67.9535 292.82 68.4137 294.226 69.3342C295.633 70.2546 296.336 71.5629 296.336 73.2589C296.336 74.3242 295.939 75.2106 295.147 75.918C294.354 76.6254 293.255 77.1026 291.848 77.3498C293.025 77.435 294.026 77.7035 294.853 78.1552C295.688 78.5984 296.323 79.1737 296.758 79.881C297.201 80.5884 297.422 81.3725 297.422 82.2333C297.422 83.3498 297.124 84.3086 296.527 85.1097C295.939 85.9109 295.074 86.5245 293.932 86.9506C292.799 87.3768 291.414 87.5898 289.777 87.5898H280.113ZM285.188 83.5117H289.777C290.536 83.5117 291.128 83.3327 291.554 82.9748C291.989 82.6083 292.206 82.1097 292.206 81.479C292.206 80.7802 291.989 80.2305 291.554 79.8299C291.128 79.4293 290.536 79.229 289.777 79.229H285.188V83.5117ZM285.188 76.033H288.601C289.147 76.033 289.611 75.9563 289.995 75.8029C290.387 75.641 290.685 75.4109 290.89 75.1126C291.103 74.8143 291.209 74.4606 291.209 74.0515C291.209 73.4464 290.966 72.9734 290.481 72.6325C289.995 72.2915 289.33 72.1211 288.486 72.1211H285.188V76.033Z" fill="white"/>
<path d="M344 77.7898C344.702 81.3898 347.5 88.0898 354 87.5898C360.5 87.0898 361.279 70.5898 372.657 70.5898C384.036 70.5898 384.036 89.6184 403 73.1613" stroke="white" stroke-width="2" stroke-linecap="round" stroke-linejoin="round"/>
</g>
</g>
<defs>
<filter id="filter0_d_8159_381" x="-16" y="0.589844" width="480" height="169" filterUnits="userSpaceOnUse" color-interpolation-filters="sRGB">
<feFlood flood-opacity="0" result="BackgroundImageFix"/>
<feColorMatrix in="SourceAlpha" type="matrix" values="0 0 0 0 0 0 0 0 0 0 0 0 0 0 0 0 0 0 127 0" result="hardAlpha"/>
<feOffset dy="18"/>
<feGaussianBlur stdDeviation="20"/>
<feColorMatrix type="matrix" values="0 0 0 0 0.439216 0 0 0 0 0.564706 0 0 0 0 0.690196 0 0 0 0.12 0"/>
<feBlend mode="normal" in2="BackgroundImageFix" result="effect1_dropShadow_8159_381"/>
<feBlend mode="normal" in="SourceGraphic" in2="effect1_dropShadow_8159_381" result="shape"/>
</filter>
<linearGradient id="paint0_linear_8159_381" x1="368.954" y1="-69.1897" x2="342.438" y2="157.232" gradientUnits="userSpaceOnUse">
<stop stop-color="white"/>
<stop offset="0.0001" stop-color="white"/>
<stop offset="1" stop-color="white" stop-opacity="0"/>
</linearGradient>
<clipPath id="clip0_8159_381">
<rect x="24" y="22.5898" width="400" height="89" rx="17" fill="white"/>
</clipPath>
<clipPath id="clip1_8159_381">
<rect width="24" height="24" fill="white" transform="translate(383 33.5898)"/>
</clipPath>
</defs>
</svg>
