<svg width="448" height="170" viewBox="0 0 448 170" fill="none" xmlns="http://www.w3.org/2000/svg">
<g filter="url(#filter0_d_8159_594)">
<g clip-path="url(#clip0_8159_594)">
<rect x="12" y="9.58984" width="424" height="130" rx="40" fill="#0046E2"/>
<mask id="mask0_8159_594" style="mask-type:alpha" maskUnits="userSpaceOnUse" x="12" y="9" width="424" height="126">
<rect x="12" y="9.58984" width="424" height="125" rx="40" fill="#4318FF"/>
</mask>
<g mask="url(#mask0_8159_594)">
<path opacity="0.1" d="M242 173.59L363.689 -38.4102H430.384L436 173.59H242Z" fill="url(#paint0_linear_8159_594)"/>
</g>
<g clip-path="url(#clip1_8159_594)">
<path d="M389 43.5898C387.9 43.5898 387 44.4898 387 45.5898C387 46.6898 387.9 47.5898 389 47.5898C390.1 47.5898 391 46.6898 391 45.5898C391 44.4898 390.1 43.5898 389 43.5898ZM401 43.5898C399.9 43.5898 399 44.4898 399 45.5898C399 46.6898 399.9 47.5898 401 47.5898C402.1 47.5898 403 46.6898 403 45.5898C403 44.4898 402.1 43.5898 401 43.5898ZM395 43.5898C393.9 43.5898 393 44.4898 393 45.5898C393 46.6898 393.9 47.5898 395 47.5898C396.1 47.5898 397 46.6898 397 45.5898C397 44.4898 396.1 43.5898 395 43.5898Z" fill="white"/>
</g>
<path d="M45.152 41.0218H46.34V45.5578C46.34 45.7578 46.336 45.9778 46.328 46.2178C46.328 46.4578 46.324 46.6938 46.316 46.9258C46.308 47.1578 46.296 47.3658 46.28 47.5498C46.272 47.7258 46.264 47.8578 46.256 47.9458H46.304L50.792 41.0218H52.28V49.5898H51.092V45.0898C51.092 44.8738 51.096 44.6418 51.104 44.3938C51.112 44.1378 51.12 43.8898 51.128 43.6498C51.144 43.4098 51.156 43.2018 51.164 43.0258C51.172 42.8418 51.18 42.7098 51.188 42.6298H51.14L46.64 49.5898H45.152V41.0218ZM56.0622 43.0018C56.5422 43.0018 56.9702 43.0658 57.3462 43.1938C57.7222 43.3218 58.0182 43.5138 58.2342 43.7698C58.4502 44.0258 58.5582 44.3378 58.5582 44.7058C58.5582 45.0978 58.4462 45.4098 58.2222 45.6418C58.0062 45.8738 57.7062 46.0418 57.3222 46.1458V46.1938C57.5862 46.2658 57.8262 46.3658 58.0422 46.4938C58.2582 46.6138 58.4302 46.7778 58.5582 46.9858C58.6942 47.1858 58.7622 47.4498 58.7622 47.7778C58.7622 48.1298 58.6582 48.4538 58.4502 48.7498C58.2502 49.0458 57.9382 49.2818 57.5142 49.4578C57.0902 49.6258 56.5422 49.7098 55.8702 49.7098C55.5582 49.7098 55.2582 49.6938 54.9702 49.6618C54.6822 49.6298 54.4222 49.5818 54.1902 49.5178C53.9582 49.4538 53.7542 49.3778 53.5782 49.2898V48.1858C53.8502 48.3138 54.1742 48.4298 54.5502 48.5338C54.9342 48.6378 55.3502 48.6898 55.7982 48.6898C56.1182 48.6898 56.4062 48.6578 56.6622 48.5938C56.9262 48.5298 57.1342 48.4258 57.2862 48.2818C57.4382 48.1378 57.5142 47.9458 57.5142 47.7058C57.5142 47.4738 57.4462 47.2858 57.3102 47.1418C57.1742 46.9978 56.9702 46.8898 56.6982 46.8178C56.4342 46.7458 56.0942 46.7098 55.6782 46.7098H54.8622V45.7378H55.5462C56.1062 45.7378 56.5502 45.6738 56.8782 45.5458C57.2142 45.4098 57.3822 45.1738 57.3822 44.8378C57.3822 44.5658 57.2622 44.3618 57.0222 44.2258C56.7822 44.0818 56.4262 44.0098 55.9542 44.0098C55.6102 44.0098 55.2902 44.0458 54.9942 44.1178C54.6982 44.1818 54.3902 44.2818 54.0702 44.4178L53.6502 43.4578C54.0022 43.3138 54.3742 43.2018 54.7662 43.1218C55.1662 43.0418 55.5982 43.0018 56.0622 43.0018ZM65.7316 46.3498C65.7316 46.8858 65.6596 47.3618 65.5156 47.7778C65.3716 48.1938 65.1676 48.5458 64.9036 48.8338C64.6396 49.1218 64.3196 49.3418 63.9436 49.4938C63.5676 49.6378 63.1436 49.7098 62.6716 49.7098C62.2396 49.7098 61.8396 49.6378 61.4716 49.4938C61.1036 49.3418 60.7836 49.1218 60.5116 48.8338C60.2476 48.5458 60.0396 48.1938 59.8876 47.7778C59.7356 47.3618 59.6596 46.8818 59.6596 46.3378C59.6596 45.6258 59.7796 45.0218 60.0196 44.5258C60.2676 44.0298 60.6196 43.6538 61.0756 43.3978C61.5396 43.1338 62.0836 43.0018 62.7076 43.0018C63.2996 43.0018 63.8196 43.1338 64.2676 43.3978C64.7236 43.6538 65.0796 44.0298 65.3356 44.5258C65.5996 45.0218 65.7316 45.6298 65.7316 46.3498ZM60.9676 46.3498C60.9676 46.8298 61.0276 47.2458 61.1476 47.5978C61.2676 47.9418 61.4556 48.2058 61.7116 48.3898C61.9676 48.5738 62.2956 48.6658 62.6956 48.6658C63.0956 48.6658 63.4236 48.5738 63.6796 48.3898C63.9356 48.2058 64.1236 47.9418 64.2436 47.5978C64.3636 47.2458 64.4236 46.8298 64.4236 46.3498C64.4236 45.8538 64.3596 45.4378 64.2316 45.1018C64.1116 44.7658 63.9236 44.5098 63.6676 44.3338C63.4196 44.1498 63.0916 44.0578 62.6836 44.0578C62.0836 44.0578 61.6476 44.2578 61.3756 44.6578C61.1036 45.0578 60.9676 45.6218 60.9676 46.3498ZM66.7441 45.7138C66.7441 44.7618 66.8441 43.9538 67.0441 43.2898C67.2521 42.6258 67.5721 42.0978 68.0041 41.7058C68.4361 41.3058 68.9961 41.0338 69.6841 40.8898C70.1801 40.7938 70.6641 40.7058 71.1361 40.6258C71.6161 40.5458 72.0801 40.4738 72.5281 40.4098L72.7081 41.5258C72.5081 41.5498 72.2801 41.5818 72.0241 41.6218C71.7761 41.6618 71.5201 41.7018 71.2561 41.7418C71.0001 41.7818 70.7521 41.8218 70.5121 41.8618C70.2801 41.9018 70.0721 41.9418 69.8881 41.9818C69.6081 42.0298 69.3601 42.1138 69.1441 42.2338C68.9361 42.3538 68.7561 42.5138 68.6041 42.7138C68.4601 42.9138 68.3441 43.1698 68.2561 43.4818C68.1681 43.7858 68.1161 44.1578 68.1001 44.5978H68.1721C68.2841 44.4458 68.4321 44.2898 68.6161 44.1298C68.8081 43.9698 69.0361 43.8378 69.3001 43.7338C69.5721 43.6218 69.8841 43.5658 70.2361 43.5658C70.7801 43.5658 71.2401 43.6858 71.6161 43.9258C71.9921 44.1578 72.2761 44.4898 72.4681 44.9218C72.6601 45.3458 72.7561 45.8538 72.7561 46.4458C72.7561 47.1738 72.6281 47.7818 72.3721 48.2698C72.1241 48.7498 71.7721 49.1098 71.3161 49.3498C70.8681 49.5898 70.3441 49.7098 69.7441 49.7098C69.2881 49.7098 68.8761 49.6258 68.5081 49.4578C68.1401 49.2818 67.8241 49.0258 67.5601 48.6898C67.2961 48.3458 67.0921 47.9258 66.9481 47.4298C66.8121 46.9338 66.7441 46.3618 66.7441 45.7138ZM69.8401 48.6658C70.1601 48.6658 70.4401 48.5978 70.6801 48.4618C70.9201 48.3258 71.1041 48.1058 71.2321 47.8018C71.3681 47.4978 71.4361 47.0898 71.4361 46.5778C71.4361 45.9618 71.3241 45.4738 71.1001 45.1138C70.8761 44.7538 70.5041 44.5738 69.9841 44.5738C69.6641 44.5738 69.3681 44.6498 69.0961 44.8018C68.8321 44.9458 68.6081 45.1098 68.4241 45.2938C68.2481 45.4778 68.1241 45.6338 68.0521 45.7618C68.0521 46.1378 68.0761 46.4978 68.1241 46.8418C68.1801 47.1858 68.2721 47.4938 68.4001 47.7658C68.5361 48.0378 68.7201 48.2578 68.9521 48.4258C69.1841 48.5858 69.4801 48.6658 69.8401 48.6658ZM77.3695 43.0018C78.1455 43.0018 78.7695 43.2818 79.2415 43.8418C79.7215 44.4018 79.9615 45.2378 79.9615 46.3498C79.9615 47.0778 79.8535 47.6938 79.6375 48.1978C79.4215 48.7018 79.1175 49.0818 78.7255 49.3378C78.3335 49.5858 77.8775 49.7098 77.3575 49.7098C77.0295 49.7098 76.7415 49.6698 76.4935 49.5898C76.2455 49.5018 76.0335 49.3898 75.8575 49.2538C75.6895 49.1098 75.5415 48.9578 75.4135 48.7978H75.3295C75.3535 48.9418 75.3735 49.1138 75.3895 49.3138C75.4055 49.5058 75.4135 49.6778 75.4135 49.8298V52.4698H74.1415V43.1218H75.1735L75.3535 43.9858H75.4135C75.5415 43.8098 75.6935 43.6458 75.8695 43.4938C76.0455 43.3418 76.2575 43.2218 76.5055 43.1338C76.7535 43.0458 77.0415 43.0018 77.3695 43.0018ZM77.0695 44.0458C76.6695 44.0458 76.3495 44.1258 76.1095 44.2858C75.8695 44.4378 75.6935 44.6698 75.5815 44.9818C75.4775 45.2858 75.4215 45.6738 75.4135 46.1458V46.3378C75.4135 46.8338 75.4655 47.2578 75.5695 47.6098C75.6735 47.9538 75.8455 48.2178 76.0855 48.4018C76.3335 48.5778 76.6695 48.6658 77.0935 48.6658C77.4535 48.6658 77.7455 48.5698 77.9695 48.3778C78.2015 48.1778 78.3735 47.9018 78.4855 47.5498C78.5975 47.1978 78.6535 46.7898 78.6535 46.3258C78.6535 45.6218 78.5255 45.0658 78.2695 44.6578C78.0135 44.2498 77.6135 44.0458 77.0695 44.0458ZM83.8509 43.0018C84.6669 43.0018 85.2749 43.1818 85.6749 43.5418C86.0749 43.8938 86.2749 44.4498 86.2749 45.2098V49.5898H85.3749L85.1229 48.6898H85.0749C84.8909 48.9218 84.6989 49.1138 84.4989 49.2658C84.3069 49.4178 84.0829 49.5298 83.8269 49.6018C83.5789 49.6738 83.2749 49.7098 82.9149 49.7098C82.5309 49.7098 82.1829 49.6418 81.8709 49.5058C81.5669 49.3618 81.3269 49.1458 81.1509 48.8578C80.9749 48.5618 80.8869 48.1938 80.8869 47.7538C80.8869 47.0978 81.1349 46.5978 81.6309 46.2538C82.1349 45.9098 82.8989 45.7218 83.9229 45.6898L85.0269 45.6538V45.2938C85.0269 44.8138 84.9189 44.4778 84.7029 44.2858C84.4869 44.0938 84.1829 43.9978 83.7909 43.9978C83.4549 43.9978 83.1349 44.0458 82.8309 44.1418C82.5269 44.2378 82.2389 44.3538 81.9669 44.4898L81.5589 43.5658C81.8629 43.4058 82.2109 43.2738 82.6029 43.1698C83.0029 43.0578 83.4189 43.0018 83.8509 43.0018ZM84.1509 46.5058C83.4149 46.5378 82.9029 46.6618 82.6149 46.8778C82.3349 47.0858 82.1949 47.3818 82.1949 47.7658C82.1949 48.1018 82.2949 48.3458 82.4949 48.4978C82.7029 48.6498 82.9629 48.7258 83.2749 48.7258C83.7789 48.7258 84.1949 48.5858 84.5229 48.3058C84.8509 48.0258 85.0149 47.6058 85.0149 47.0458V46.4818L84.1509 46.5058ZM96.1775 43.1218L93.5975 46.2538L96.4055 49.5898H95.0015L92.3015 46.3138V49.5898H91.1135V46.3138L88.4135 49.5898H87.0095L89.8175 46.2538L87.2375 43.1218H88.5935L91.1135 46.2658V43.1218H92.3015V46.2658L94.8335 43.1218H96.1775ZM99.4967 43.0018C100.065 43.0018 100.553 43.1218 100.961 43.3618C101.369 43.5938 101.681 43.9298 101.897 44.3698C102.121 44.8098 102.233 45.3298 102.233 45.9298V46.6258H97.8887C97.9047 47.2898 98.0767 47.7978 98.4047 48.1498C98.7407 48.5018 99.2087 48.6778 99.8087 48.6778C100.225 48.6778 100.593 48.6418 100.913 48.5698C101.241 48.4898 101.577 48.3738 101.921 48.2218V49.2778C101.601 49.4218 101.273 49.5298 100.937 49.6018C100.609 49.6738 100.217 49.7098 99.7607 49.7098C99.1367 49.7098 98.5847 49.5858 98.1047 49.3378C97.6247 49.0898 97.2487 48.7218 96.9767 48.2338C96.7127 47.7378 96.5807 47.1298 96.5807 46.4098C96.5807 45.6818 96.7007 45.0658 96.9407 44.5618C97.1887 44.0578 97.5287 43.6738 97.9607 43.4098C98.4007 43.1378 98.9127 43.0018 99.4967 43.0018ZM99.4967 43.9858C99.0407 43.9858 98.6727 44.1338 98.3927 44.4298C98.1207 44.7258 97.9607 45.1458 97.9127 45.6898H100.961C100.961 45.3538 100.909 45.0578 100.805 44.8018C100.701 44.5458 100.541 44.3458 100.325 44.2018C100.109 44.0578 99.8327 43.9858 99.4967 43.9858ZM104.852 43.1218V45.7498H108.044V43.1218H109.316V49.5898H108.044V46.7698H104.852V49.5898H103.58V43.1218H104.852ZM112.275 46.6498C112.275 46.7458 112.271 46.8698 112.263 47.0218C112.255 47.1738 112.247 47.3338 112.239 47.5018C112.231 47.6618 112.219 47.8138 112.203 47.9578C112.195 48.0938 112.187 48.2018 112.179 48.2818L115.503 43.1218H117.051V49.5898H115.851V46.1458C115.851 45.9938 115.855 45.8058 115.863 45.5818C115.871 45.3578 115.879 45.1418 115.887 44.9338C115.903 44.7178 115.915 44.5538 115.923 44.4418L112.623 49.5898H111.063V43.1218H112.275V46.6498ZM121.359 43.0018C121.927 43.0018 122.415 43.1218 122.823 43.3618C123.231 43.5938 123.543 43.9298 123.759 44.3698C123.983 44.8098 124.095 45.3298 124.095 45.9298V46.6258H119.751C119.767 47.2898 119.939 47.7978 120.267 48.1498C120.603 48.5018 121.071 48.6778 121.671 48.6778C122.087 48.6778 122.455 48.6418 122.775 48.5698C123.103 48.4898 123.439 48.3738 123.783 48.2218V49.2778C123.463 49.4218 123.135 49.5298 122.799 49.6018C122.471 49.6738 122.079 49.7098 121.623 49.7098C120.999 49.7098 120.447 49.5858 119.967 49.3378C119.487 49.0898 119.111 48.7218 118.839 48.2338C118.575 47.7378 118.443 47.1298 118.443 46.4098C118.443 45.6818 118.563 45.0658 118.803 44.5618C119.051 44.0578 119.391 43.6738 119.823 43.4098C120.263 43.1378 120.775 43.0018 121.359 43.0018ZM121.359 43.9858C120.903 43.9858 120.535 44.1338 120.255 44.4298C119.983 44.7258 119.823 45.1458 119.775 45.6898H122.823C122.823 45.3538 122.771 45.0578 122.667 44.8018C122.563 44.5458 122.403 44.3458 122.187 44.2018C121.971 44.0578 121.695 43.9858 121.359 43.9858Z" fill="#E9EDF7"/>
<path d="M54.7997 87.9478C52.8906 87.9478 51.1903 87.6197 49.6989 86.9634C48.2159 86.2987 47.044 85.3867 46.1832 84.2276C45.331 83.06 44.892 81.7134 44.8665 80.1879H50.4403C50.4744 80.8271 50.6832 81.3896 51.0668 81.8754C51.4588 82.3526 51.9787 82.7234 52.6264 82.9876C53.2741 83.2518 54.0028 83.3839 54.8125 83.3839C55.6562 83.3839 56.402 83.2347 57.0497 82.9364C57.6974 82.6381 58.2045 82.2248 58.571 81.6964C58.9375 81.168 59.1207 80.5586 59.1207 79.8683C59.1207 79.1694 58.9247 78.5515 58.5327 78.0146C58.1491 77.4691 57.5952 77.043 56.8707 76.7361C56.1548 76.4293 55.3026 76.2759 54.3139 76.2759H51.8722V72.2106H54.3139C55.1491 72.2106 55.8864 72.0657 56.5256 71.7759C57.1733 71.4862 57.6761 71.0856 58.0341 70.5742C58.392 70.0543 58.571 69.4492 58.571 68.7589C58.571 68.1026 58.4134 67.5273 58.098 67.033C57.7912 66.5302 57.3565 66.1381 56.794 65.8569C56.2401 65.5756 55.5923 65.435 54.8509 65.435C54.1009 65.435 53.4148 65.5714 52.7926 65.8441C52.1705 66.1083 51.6719 66.4876 51.2969 66.9819C50.9219 67.4762 50.7216 68.0558 50.696 68.7205H45.3906C45.4162 67.212 45.8466 65.8825 46.6818 64.7319C47.517 63.5813 48.642 62.6822 50.0568 62.0344C51.4801 61.3782 53.0866 61.0501 54.8764 61.0501C56.6832 61.0501 58.2642 61.3782 59.6193 62.0344C60.9744 62.6907 62.027 63.5771 62.777 64.6935C63.5355 65.8015 63.9105 67.0458 63.902 68.4265C63.9105 69.8924 63.4545 71.1154 62.5341 72.0955C61.6222 73.0756 60.4332 73.6978 58.9673 73.962V74.1665C60.8935 74.4137 62.3594 75.0827 63.3651 76.1736C64.3793 77.256 64.8821 78.6112 64.8736 80.239C64.8821 81.7305 64.4517 83.0558 63.5824 84.2148C62.7216 85.3739 61.5327 86.2859 60.0156 86.9506C58.4986 87.6154 56.7599 87.9478 54.7997 87.9478ZM73.7832 87.9606C72.5304 87.9606 71.4139 87.7433 70.4338 87.3086C69.4537 86.8654 68.6781 86.2134 68.1071 85.3526C67.5446 84.4833 67.2633 83.4009 67.2633 82.1055C67.2633 81.0146 67.4636 80.0984 67.8642 79.3569C68.2647 78.6154 68.8102 78.0188 69.5005 77.5671C70.1909 77.1154 70.975 76.7745 71.8528 76.5444C72.7392 76.3143 73.6681 76.1523 74.6397 76.0586C75.7818 75.9393 76.7022 75.8285 77.4011 75.7262C78.1 75.6154 78.6071 75.4535 78.9224 75.2404C79.2377 75.0273 79.3954 74.712 79.3954 74.2944V74.2177C79.3954 73.408 79.1397 72.7816 78.6284 72.3384C78.1255 71.8952 77.4096 71.6736 76.4806 71.6736C75.5005 71.6736 74.7207 71.891 74.1412 72.3256C73.5616 72.7518 73.1781 73.2887 72.9906 73.9364L67.9537 73.5273C68.2093 72.3342 68.7122 71.3029 69.4622 70.4336C70.2122 69.5558 71.1795 68.8825 72.3642 68.4137C73.5573 67.9364 74.938 67.6978 76.5062 67.6978C77.5971 67.6978 78.6412 67.8256 79.6383 68.0813C80.644 68.337 81.5346 68.7333 82.3102 69.2702C83.0943 69.8072 83.7122 70.4975 84.1639 71.3413C84.6156 72.1765 84.8414 73.1779 84.8414 74.3455V87.5898H79.6767V84.8668H79.5233C79.2079 85.4805 78.786 86.0217 78.2576 86.4904C77.7292 86.9506 77.0943 87.3129 76.3528 87.5771C75.6113 87.8327 74.7548 87.9606 73.7832 87.9606ZM75.3429 84.2021C76.144 84.2021 76.8514 84.0444 77.465 83.729C78.0787 83.4052 78.5602 82.9705 78.9096 82.4251C79.259 81.8796 79.4338 81.2617 79.4338 80.5714V78.4876C79.2633 78.5984 79.0289 78.7006 78.7306 78.7944C78.4409 78.8796 78.1127 78.9606 77.7463 79.0373C77.3798 79.1055 77.0133 79.1694 76.6468 79.229C76.2804 79.2802 75.948 79.3271 75.6497 79.3697C75.0105 79.4634 74.4522 79.6126 73.975 79.8171C73.4977 80.0217 73.1269 80.2987 72.8627 80.6481C72.5985 80.989 72.4664 81.4151 72.4664 81.9265C72.4664 82.668 72.7349 83.2347 73.2718 83.6268C73.8173 84.0103 74.5076 84.2021 75.3429 84.2021ZM101.795 67.9535V72.2361H93.6392V87.5898H88.3466V67.9535H101.795ZM104.396 94.9535V67.9535H109.765V71.2518H110.008C110.247 70.7234 110.592 70.1864 111.044 69.641C111.504 69.087 112.101 68.6268 112.834 68.2603C113.575 67.8853 114.496 67.6978 115.595 67.6978C117.027 67.6978 118.348 68.0728 119.558 68.8228C120.768 69.5643 121.736 70.685 122.46 72.185C123.184 73.6765 123.547 75.5472 123.547 77.7972C123.547 79.9876 123.193 81.837 122.486 83.3455C121.787 84.8455 120.832 85.9833 119.622 86.7589C118.42 87.5259 117.074 87.9094 115.582 87.9094C114.525 87.9094 113.626 87.7347 112.885 87.3853C112.152 87.0359 111.551 86.5969 111.082 86.0685C110.613 85.5316 110.255 84.9904 110.008 84.445H109.842V94.9535H104.396ZM109.727 77.7717C109.727 78.9393 109.889 79.9577 110.213 80.8271C110.537 81.6964 111.005 82.3739 111.619 82.8597C112.233 83.337 112.978 83.5756 113.856 83.5756C114.743 83.5756 115.493 83.3327 116.106 82.8469C116.72 82.3526 117.184 81.6708 117.5 80.8015C117.824 79.9237 117.986 78.9137 117.986 77.7717C117.986 76.6381 117.828 75.641 117.513 74.7802C117.197 73.9194 116.733 73.2461 116.119 72.7603C115.505 72.2745 114.751 72.0316 113.856 72.0316C112.97 72.0316 112.22 72.266 111.606 72.7347C111.001 73.2035 110.537 73.8683 110.213 74.729C109.889 75.5898 109.727 76.604 109.727 77.7717ZM129.187 94.9535C128.496 94.9535 127.849 94.8981 127.244 94.7873C126.647 94.685 126.153 94.5529 125.761 94.391L126.988 90.3256C127.627 90.5217 128.202 90.6282 128.714 90.6452C129.234 90.6623 129.681 90.543 130.056 90.2873C130.44 90.0316 130.751 89.5969 130.989 88.9833L131.309 88.1523L124.265 67.9535H129.992L134.058 82.3739H134.262L138.366 67.9535H144.131L136.499 89.712C136.133 90.7688 135.634 91.6893 135.004 92.4734C134.381 93.266 133.593 93.8754 132.638 94.3015C131.684 94.7362 130.533 94.9535 129.187 94.9535ZM145.188 82.0288H150.468C150.494 82.6765 150.784 83.1879 151.338 83.5629C151.891 83.9379 152.607 84.1254 153.485 84.1254C154.372 84.1254 155.117 83.9208 155.722 83.5117C156.328 83.0941 156.63 82.4975 156.63 81.7219C156.63 81.2447 156.511 80.8313 156.272 80.4819C156.034 80.1239 155.701 79.8427 155.275 79.6381C154.849 79.4336 154.355 79.3313 153.792 79.3313H150.967V75.7646H153.792C154.636 75.7646 155.284 75.5685 155.735 75.1765C156.195 74.7844 156.426 74.2944 156.426 73.7063C156.426 73.0415 156.187 72.5089 155.71 72.1083C155.241 71.6992 154.606 71.4947 153.805 71.4947C152.995 71.4947 152.322 71.6779 151.785 72.0444C151.257 72.4023 150.984 72.8711 150.967 73.4506H145.713C145.73 72.2745 146.083 71.256 146.774 70.3952C147.472 69.5344 148.41 68.8697 149.586 68.4009C150.771 67.9322 152.096 67.6978 153.562 67.6978C155.164 67.6978 156.545 67.9237 157.704 68.3754C158.872 68.8185 159.766 69.4535 160.389 70.2802C161.019 71.1069 161.335 72.0913 161.335 73.2333C161.335 74.2731 160.994 75.1424 160.312 75.8413C159.63 76.5401 158.676 77.0387 157.448 77.337V77.5415C158.258 77.5927 158.991 77.81 159.647 78.1935C160.303 78.5771 160.828 79.1055 161.22 79.7788C161.612 80.4435 161.808 81.2319 161.808 82.1438C161.808 83.3626 161.45 84.4066 160.734 85.2759C160.026 86.1452 159.046 86.8143 157.793 87.283C156.549 87.7433 155.122 87.9734 153.511 87.9734C151.943 87.9734 150.536 87.7475 149.292 87.2958C148.056 86.8356 147.072 86.1623 146.339 85.2759C145.614 84.3896 145.231 83.3072 145.188 82.0288ZM169.631 80.4052L176.7 67.9535H182.07V87.5898H176.879V75.0998L169.835 87.5898H164.428V67.9535H169.631V80.4052ZM183.743 72.2361V67.9535H201.539V72.2361H195.211V87.5898H190.02V72.2361H183.743ZM207.534 73.9876H213.402C216.001 73.9876 218.029 74.6097 219.487 75.854C220.944 77.0898 221.673 78.7433 221.673 80.8143C221.673 82.1609 221.345 83.3455 220.689 84.3683C220.032 85.3825 219.086 86.1751 217.85 86.7461C216.615 87.3086 215.132 87.5898 213.402 87.5898H204.12V67.9535H209.323V83.3072H213.402C214.314 83.3072 215.064 83.0771 215.652 82.6168C216.24 82.1566 216.538 81.5685 216.546 80.8526C216.538 80.0941 216.24 79.4762 215.652 78.9989C215.064 78.5131 214.314 78.2702 213.402 78.2702H207.534V73.9876Z" fill="white"/>
<path d="M344 77.7898C344.702 81.3898 347.5 88.0898 354 87.5898C360.5 87.0898 361.279 70.5898 372.657 70.5898C384.036 70.5898 384.036 89.6184 403 73.1613" stroke="white" stroke-width="2" stroke-linecap="round" stroke-linejoin="round"/>
</g>
</g>
<defs>
<filter id="filter0_d_8159_594" x="-16" y="0.589844" width="480" height="169" filterUnits="userSpaceOnUse" color-interpolation-filters="sRGB">
<feFlood flood-opacity="0" result="BackgroundImageFix"/>
<feColorMatrix in="SourceAlpha" type="matrix" values="0 0 0 0 0 0 0 0 0 0 0 0 0 0 0 0 0 0 127 0" result="hardAlpha"/>
<feOffset dy="18"/>
<feGaussianBlur stdDeviation="20"/>
<feColorMatrix type="matrix" values="0 0 0 0 0.439216 0 0 0 0 0.564706 0 0 0 0 0.690196 0 0 0 0.12 0"/>
<feBlend mode="normal" in2="BackgroundImageFix" result="effect1_dropShadow_8159_594"/>
<feBlend mode="normal" in="SourceGraphic" in2="effect1_dropShadow_8159_594" result="shape"/>
</filter>
<linearGradient id="paint0_linear_8159_594" x1="368.954" y1="-69.1897" x2="342.438" y2="157.232" gradientUnits="userSpaceOnUse">
<stop stop-color="white"/>
<stop offset="0.0001" stop-color="white"/>
<stop offset="1" stop-color="white" stop-opacity="0"/>
</linearGradient>
<clipPath id="clip0_8159_594">
<rect x="24" y="22.5898" width="400" height="89" rx="17" fill="white"/>
</clipPath>
<clipPath id="clip1_8159_594">
<rect width="24" height="24" fill="white" transform="translate(383 33.5898)"/>
</clipPath>
</defs>
</svg>
