<svg width="448" height="169" viewBox="0 0 448 169" fill="none" xmlns="http://www.w3.org/2000/svg">
<g filter="url(#filter0_d_8091_8173)">
<g clip-path="url(#clip0_8091_8173)">
<rect x="12" y="9" width="424" height="130" rx="40" fill="#0046E2"/>
<mask id="mask0_8091_8173" style="mask-type:alpha" maskUnits="userSpaceOnUse" x="12" y="9" width="424" height="125">
<rect x="12" y="9" width="424" height="125" rx="40" fill="#4318FF"/>
</mask>
<g mask="url(#mask0_8091_8173)">
<path opacity="0.1" d="M242 173L363.689 -39H430.384L436 173H242Z" fill="url(#paint0_linear_8091_8173)"/>
</g>
<g clip-path="url(#clip1_8091_8173)">
<path d="M389 43C387.9 43 387 43.9 387 45C387 46.1 387.9 47 389 47C390.1 47 391 46.1 391 45C391 43.9 390.1 43 389 43ZM401 43C399.9 43 399 43.9 399 45C399 46.1 399.9 47 401 47C402.1 47 403 46.1 403 45C403 43.9 402.1 43 401 43ZM395 43C393.9 43 393 43.9 393 45C393 46.1 393.9 47 395 47C396.1 47 397 46.1 397 45C397 43.9 396.1 43 395 43Z" fill="white"/>
</g>
<path d="M45.2756 87V60.8182H55.6051C57.5909 60.8182 59.2827 61.1974 60.6804 61.956C62.0781 62.706 63.1435 63.75 63.8764 65.0881C64.6179 66.4176 64.9886 67.9517 64.9886 69.6903C64.9886 71.429 64.6136 72.9631 63.8636 74.2926C63.1136 75.6222 62.027 76.6577 60.6037 77.3991C59.1889 78.1406 57.4759 78.5114 55.4645 78.5114H48.8807V74.0753H54.5696C55.6349 74.0753 56.5128 73.892 57.2031 73.5256C57.902 73.1506 58.4219 72.6349 58.7628 71.9787C59.1122 71.3139 59.2869 70.5511 59.2869 69.6903C59.2869 68.821 59.1122 68.0625 58.7628 67.4148C58.4219 66.7585 57.902 66.2514 57.2031 65.8935C56.5043 65.527 55.6179 65.3438 54.544 65.3438H50.8111V87H45.2756ZM76.3943 87.3835C74.3745 87.3835 72.6358 86.9744 71.1784 86.1562C69.7296 85.3295 68.6131 84.1619 67.829 82.6534C67.0449 81.1364 66.6529 79.3423 66.6529 77.2713C66.6529 75.2514 67.0449 73.4787 67.829 71.9531C68.6131 70.4276 69.7168 69.2386 71.1401 68.3864C72.5719 67.5341 74.2509 67.108 76.177 67.108C77.4725 67.108 78.6784 67.3168 79.7949 67.7344C80.9199 68.1435 81.9 68.7614 82.7353 69.5881C83.579 70.4148 84.2353 71.4545 84.704 72.7074C85.1728 73.9517 85.4071 75.4091 85.4071 77.0795V78.5753H68.8262V75.2003H80.2807C80.2807 74.4162 80.1103 73.7216 79.7693 73.1165C79.4284 72.5114 78.9554 72.0384 78.3503 71.6974C77.7537 71.348 77.0591 71.1733 76.2665 71.1733C75.4398 71.1733 74.7068 71.3651 74.0676 71.7486C73.437 72.1236 72.9426 72.6307 72.5847 73.2699C72.2267 73.9006 72.0435 74.6037 72.035 75.3793V78.5881C72.035 79.5597 72.2139 80.3991 72.5719 81.1065C72.9384 81.8139 73.454 82.3594 74.1188 82.7429C74.7836 83.1264 75.5719 83.3182 76.4838 83.3182C77.089 83.3182 77.6429 83.233 78.1458 83.0625C78.6486 82.892 79.079 82.6364 79.437 82.2955C79.7949 81.9545 80.0676 81.5369 80.2551 81.0426L85.2921 81.375C85.0364 82.5852 84.5122 83.642 83.7196 84.5455C82.9355 85.4403 81.9213 86.1392 80.677 86.642C79.4412 87.1364 78.0137 87.3835 76.3943 87.3835ZM87.2312 81.4389H92.511C92.5366 82.0866 92.8263 82.598 93.3803 82.973C93.9343 83.348 94.6502 83.5355 95.528 83.5355C96.4144 83.5355 97.1601 83.331 97.7653 82.9219C98.3704 82.5043 98.6729 81.9077 98.6729 81.1321C98.6729 80.6548 98.5536 80.2415 98.315 79.892C98.0763 79.5341 97.744 79.2528 97.3178 79.0483C96.8917 78.8437 96.3974 78.7415 95.8349 78.7415H93.0096V75.1747H95.8349C96.6786 75.1747 97.3263 74.9787 97.778 74.5866C98.2383 74.1946 98.4684 73.7045 98.4684 73.1165C98.4684 72.4517 98.2297 71.919 97.7525 71.5185C97.2837 71.1094 96.6488 70.9048 95.8476 70.9048C95.038 70.9048 94.3647 71.0881 93.8278 71.4545C93.2993 71.8125 93.0266 72.2812 93.0096 72.8608H87.7553C87.7724 71.6847 88.1261 70.6662 88.8164 69.8054C89.5153 68.9446 90.4528 68.2798 91.6289 67.8111C92.8136 67.3423 94.1388 67.108 95.6047 67.108C97.207 67.108 98.5877 67.3338 99.7468 67.7855C100.914 68.2287 101.809 68.8636 102.431 69.6903C103.062 70.517 103.377 71.5014 103.377 72.6435C103.377 73.6832 103.037 74.5526 102.355 75.2514C101.673 75.9503 100.718 76.4489 99.4911 76.7472V76.9517C100.301 77.0028 101.034 77.2202 101.69 77.6037C102.346 77.9872 102.87 78.5156 103.262 79.1889C103.654 79.8537 103.85 80.642 103.85 81.554C103.85 82.7727 103.493 83.8168 102.777 84.6861C102.069 85.5554 101.089 86.2244 99.8363 86.6932C98.592 87.1534 97.1644 87.3835 95.5536 87.3835C93.9854 87.3835 92.5792 87.1577 91.3349 86.706C90.0991 86.2457 89.1147 85.5724 88.3817 84.6861C87.6573 83.7997 87.2738 82.7173 87.2312 81.4389ZM109.833 94.3636C109.142 94.3636 108.494 94.3082 107.889 94.1974C107.293 94.0952 106.798 93.9631 106.406 93.8011L107.634 89.7358C108.273 89.9318 108.848 90.0384 109.36 90.0554C109.879 90.0724 110.327 89.9531 110.702 89.6974C111.085 89.4418 111.396 89.0071 111.635 88.3935L111.955 87.5625L104.911 67.3636H110.638L114.703 81.7841H114.908L119.012 67.3636H124.777L117.145 89.1222C116.779 90.179 116.28 91.0994 115.649 91.8835C115.027 92.6761 114.239 93.2855 113.284 93.7116C112.33 94.1463 111.179 94.3636 109.833 94.3636ZM124.111 87L124.086 82.679H124.738C125.198 82.679 125.594 82.5682 125.927 82.3466C126.268 82.1165 126.549 81.7457 126.771 81.2344C126.992 80.723 127.167 80.0455 127.295 79.2017C127.423 78.3494 127.508 77.3011 127.55 76.0568L127.87 67.3636H142.802V87H137.611V71.6463H132.766L132.459 77.642C132.383 79.2869 132.183 80.7017 131.859 81.8864C131.543 83.071 131.104 84.0426 130.542 84.8011C129.979 85.5511 129.302 86.1051 128.509 86.4631C127.717 86.821 126.796 87 125.748 87H124.111ZM149.717 73.3977H155.585C158.184 73.3977 160.213 74.0199 161.67 75.2642C163.128 76.5 163.856 78.1534 163.856 80.2244C163.856 81.571 163.528 82.7557 162.872 83.7784C162.216 84.7926 161.27 85.5852 160.034 86.1562C158.798 86.7188 157.315 87 155.585 87H146.304V67.3636H151.507V82.7173H155.585C156.497 82.7173 157.247 82.4872 157.835 82.027C158.423 81.5668 158.721 80.9787 158.73 80.2628C158.721 79.5043 158.423 78.8864 157.835 78.4091C157.247 77.9233 156.497 77.6804 155.585 77.6804H149.717V73.3977ZM163.686 71.6463V67.3636H181.481V71.6463H175.153V87H169.963V71.6463H163.686ZM188.959 87.3707C187.706 87.3707 186.59 87.1534 185.61 86.7188C184.63 86.2756 183.854 85.6236 183.283 84.7628C182.721 83.8935 182.439 82.8111 182.439 81.5156C182.439 80.4247 182.64 79.5085 183.04 78.767C183.441 78.0256 183.986 77.429 184.677 76.9773C185.367 76.5256 186.151 76.1847 187.029 75.9545C187.915 75.7244 188.844 75.5625 189.816 75.4688C190.958 75.3494 191.878 75.2386 192.577 75.1364C193.276 75.0256 193.783 74.8636 194.099 74.6506C194.414 74.4375 194.572 74.1222 194.572 73.7045V73.6278C194.572 72.8182 194.316 72.1918 193.804 71.7486C193.302 71.3054 192.586 71.0838 191.657 71.0838C190.677 71.0838 189.897 71.3011 189.317 71.7358C188.738 72.1619 188.354 72.6989 188.167 73.3466L183.13 72.9375C183.385 71.7443 183.888 70.7131 184.638 69.8438C185.388 68.9659 186.356 68.2926 187.54 67.8239C188.733 67.3466 190.114 67.108 191.682 67.108C192.773 67.108 193.817 67.2358 194.814 67.4915C195.82 67.7472 196.711 68.1435 197.486 68.6804C198.27 69.2173 198.888 69.9077 199.34 70.7514C199.792 71.5866 200.018 72.5881 200.018 73.7557V87H194.853V84.277H194.699C194.384 84.8906 193.962 85.4318 193.434 85.9006C192.905 86.3608 192.27 86.723 191.529 86.9872C190.787 87.2429 189.931 87.3707 188.959 87.3707ZM190.519 83.6122C191.32 83.6122 192.027 83.4545 192.641 83.1392C193.255 82.8153 193.736 82.3807 194.086 81.8352C194.435 81.2898 194.61 80.6719 194.61 79.9815V77.8977C194.439 78.0085 194.205 78.1108 193.907 78.2045C193.617 78.2898 193.289 78.3707 192.922 78.4474C192.556 78.5156 192.189 78.5795 191.823 78.6392C191.456 78.6903 191.124 78.7372 190.826 78.7798C190.187 78.8736 189.628 79.0227 189.151 79.2273C188.674 79.4318 188.303 79.7088 188.039 80.0582C187.775 80.3991 187.643 80.8253 187.643 81.3366C187.643 82.0781 187.911 82.6449 188.448 83.0369C188.993 83.4205 189.684 83.6122 190.519 83.6122ZM201.551 71.6463V67.3636H219.346V71.6463H213.018V87H207.828V71.6463H201.551Z" fill="white"/>
<path d="M344 77.2C344.702 80.8 347.5 87.5 354 87C360.5 86.5 361.279 70 372.657 70C384.036 70 384.036 89.0286 403 72.5714" stroke="white" stroke-width="2" stroke-linecap="round" stroke-linejoin="round"/>
</g>
</g>
<defs>
<filter id="filter0_d_8091_8173" x="-16" y="0" width="480" height="169" filterUnits="userSpaceOnUse" color-interpolation-filters="sRGB">
<feFlood flood-opacity="0" result="BackgroundImageFix"/>
<feColorMatrix in="SourceAlpha" type="matrix" values="0 0 0 0 0 0 0 0 0 0 0 0 0 0 0 0 0 0 127 0" result="hardAlpha"/>
<feOffset dy="18"/>
<feGaussianBlur stdDeviation="20"/>
<feColorMatrix type="matrix" values="0 0 0 0 0.439216 0 0 0 0 0.564706 0 0 0 0 0.690196 0 0 0 0.12 0"/>
<feBlend mode="normal" in2="BackgroundImageFix" result="effect1_dropShadow_8091_8173"/>
<feBlend mode="normal" in="SourceGraphic" in2="effect1_dropShadow_8091_8173" result="shape"/>
</filter>
<linearGradient id="paint0_linear_8091_8173" x1="368.954" y1="-69.7796" x2="342.438" y2="156.643" gradientUnits="userSpaceOnUse">
<stop stop-color="white"/>
<stop offset="0.0001" stop-color="white"/>
<stop offset="1" stop-color="white" stop-opacity="0"/>
</linearGradient>
<clipPath id="clip0_8091_8173">
<rect x="24" y="22" width="400" height="89" rx="17" fill="white"/>
</clipPath>
<clipPath id="clip1_8091_8173">
<rect width="24" height="24" fill="white" transform="translate(383 33)"/>
</clipPath>
</defs>
</svg>
